<svg width="30" height="30" viewBox="0 0 30 30" fill="none" xmlns="http://www.w3.org/2000/svg">
<g filter="url(#filter0_d_5_250)">
<path d="M13.9844 18.2891L15.8367 18.2728L15.8251 16.9497C16.7057 16.7832 17.4612 16.4325 18.0916 15.8976C18.722 15.3628 19.0326 14.575 19.0234 13.5341C19.0169 12.7932 18.7992 12.1159 18.3704 11.5022C17.9416 10.8885 17.09 10.358 15.8158 9.9105C14.7543 9.56702 14.0194 9.26477 13.6114 9.00373C13.2033 8.7427 12.9972 8.38285 12.9932 7.92419C12.9891 7.46552 13.1491 7.10244 13.4731 6.83495C13.7971 6.56745 14.2679 6.43098 14.8853 6.42553C15.4498 6.42054 15.8921 6.55337 16.212 6.824C16.532 7.09463 16.7643 7.43219 16.909 7.83669L18.5965 7.13374C18.397 6.51802 18.035 5.98312 17.5105 5.52905C16.9861 5.07498 16.4061 4.82429 15.7705 4.77697L15.7588 3.4539L13.9065 3.47025L13.9182 4.79332C13.0379 4.99516 12.3533 5.38934 11.8645 5.97585C11.3757 6.56236 11.1345 7.21726 11.1409 7.94054C11.1482 8.76967 11.3967 9.43788 11.8863 9.94519C12.376 10.4525 13.1428 10.8868 14.1869 11.2481C15.3019 11.644 16.0769 11.9988 16.5119 12.3125C16.9469 12.6263 17.1666 13.0389 17.1711 13.5505C17.1763 14.1327 16.9728 14.5623 16.5606 14.8394C16.1485 15.1165 15.6513 15.2576 15.0692 15.2627C14.487 15.2679 13.9694 15.0916 13.5164 14.7339C13.0634 14.3763 12.7278 13.8367 12.5097 13.1153L10.7693 13.8187C11.0238 14.6633 11.4135 15.3435 11.9385 15.8593C12.4635 16.3751 13.1414 16.7264 13.9723 16.9131L13.9844 18.2891ZM14.9651 21.4561C13.5009 21.469 12.1224 21.2033 10.8297 20.659C9.53703 20.1147 8.41017 19.3704 7.44914 18.4262C6.48812 17.482 5.72408 16.3685 5.15702 15.0856C4.58996 13.8027 4.29997 12.4292 4.28704 10.965C4.27412 9.50076 4.53982 8.12231 5.08414 6.82961C5.62846 5.53691 6.37272 4.41005 7.31693 3.44903C8.26113 2.48801 9.37467 1.72397 10.6576 1.15691C11.9404 0.58985 13.314 0.299857 14.7782 0.286931C16.2424 0.274005 17.6208 0.539704 18.9135 1.08403C20.2062 1.62835 21.3331 2.37261 22.2941 3.31681C23.2551 4.26102 24.0192 5.37456 24.5862 6.65745C25.1533 7.94033 25.4433 9.31388 25.4562 10.7781C25.4691 12.2423 25.2034 13.6207 24.6591 14.9134C24.1148 16.2061 23.3705 17.333 22.4263 18.294C21.4821 19.255 20.3686 20.0191 19.0857 20.5861C17.8028 21.1532 16.4293 21.4432 14.9651 21.4561Z" fill="white"/>
</g>
<defs>
<filter id="filter0_d_5_250" x="0.286621" y="0.286469" width="29.1702" height="29.1701" filterUnits="userSpaceOnUse" color-interpolation-filters="sRGB">
<feFlood flood-opacity="0" result="BackgroundImageFix"/>
<feColorMatrix in="SourceAlpha" type="matrix" values="0 0 0 0 0 0 0 0 0 0 0 0 0 0 0 0 0 0 127 0" result="hardAlpha"/>
<feOffset dy="4"/>
<feGaussianBlur stdDeviation="2"/>
<feComposite in2="hardAlpha" operator="out"/>
<feColorMatrix type="matrix" values="0 0 0 0 0 0 0 0 0 0 0 0 0 0 0 0 0 0 0.25 0"/>
<feBlend mode="normal" in2="BackgroundImageFix" result="effect1_dropShadow_5_250"/>
<feBlend mode="normal" in="SourceGraphic" in2="effect1_dropShadow_5_250" result="shape"/>
</filter>
</defs>
</svg>
